<svg width="32" height="64" viewBox="0 0 32 64" fill="none" xmlns="http://www.w3.org/2000/svg">
<path d="M32 -1.39876e-06C27.7977 -1.21508e-06 23.6365 0.827704 19.7541 2.43586C15.8717 4.04401 12.3441 6.40111 9.37258 9.37258C6.40111 12.3441 4.044 15.8717 2.43585 19.7541C0.827702 23.6366 -1.76614e-06 27.7977 -1.39876e-06 32C-1.03139e-06 36.2023 0.827704 40.3635 2.43585 44.2459C4.04401 48.1283 6.40111 51.6559 9.37258 54.6274C12.3441 57.5989 15.8717 59.956 19.7541 61.5641C23.6366 63.1723 27.7977 64 32 64L32 32L32 -1.39876e-06Z" fill="#FB9333"/>
</svg>
