<svg width="13" height="12" viewBox="0 0 13 12" fill="none" xmlns="http://www.w3.org/2000/svg">
<path d="M6.29874 0.945683C6.47986 0.566122 7.02014 0.566122 7.20126 0.945683L8.57723 3.82926C8.65012 3.98201 8.79534 4.08752 8.96314 4.10964L12.1308 4.5272C12.5477 4.58216 12.7147 5.09599 12.4097 5.38554L10.0924 7.58524C9.96968 7.70177 9.91421 7.87249 9.94503 8.03891L10.5268 11.1805C10.6033 11.5941 10.1662 11.9116 9.79662 11.711L6.98851 10.1869C6.83975 10.1062 6.66025 10.1062 6.51149 10.1869L3.70338 11.711C3.33376 11.9116 2.89666 11.5941 2.97323 11.1805L3.55497 8.03891C3.58579 7.87248 3.53032 7.70177 3.40756 7.58524L1.09032 5.38554C0.785304 5.09599 0.952261 4.58216 1.36921 4.5272L4.53686 4.10964C4.70466 4.08752 4.84988 3.98201 4.92277 3.82926L6.29874 0.945683Z" fill="url(#paint0_linear_1_61)"/>
<defs>
<linearGradient id="paint0_linear_1_61" x1="6.75" y1="0" x2="6.75" y2="13.5" gradientUnits="userSpaceOnUse">
<stop offset="0.0985536" stop-color="#FFA364"/>
<stop offset="0.788912" stop-color="#FFC112"/>
</linearGradient>
</defs>
</svg>
